<svg width="20" height="20" viewBox="0 0 20 20" fill="none" xmlns="http://www.w3.org/2000/svg">
<g clip-path="url(#clip0_6_83)">
<path d="M18.5342 20L12.3558 13.8217C11.0567 14.7958 9.42 15.3842 7.64583 15.3925H7.64417C7.6175 15.3925 7.58583 15.3933 7.55417 15.3933C3.3825 15.3933 0 12.0117 0 7.83916C0 7.80749 0 7.77582 0.000833333 7.74416V7.74916C0.000833333 3.46999 3.47 0.000823975 7.74917 0.000823975C12.0283 0.000823975 15.4975 3.46999 15.4975 7.74916C15.4717 9.52332 14.8867 11.1558 13.9108 12.4842L13.9267 12.4617L20.105 18.64L18.5342 20ZM7.74917 2.09416C4.64917 2.10749 2.14083 4.62332 2.14083 7.72582C2.14083 10.8358 4.66167 13.3575 7.7725 13.3575C10.8833 13.3575 13.4042 10.8367 13.4042 7.72582C13.4042 6.17082 12.7742 4.76332 11.755 3.74416C10.7358 2.72499 9.32833 2.09499 7.77333 2.09499C7.765 2.09499 7.75667 2.09499 7.74833 2.09499H7.75L7.74917 2.09416Z" fill="#BDBDBD"/>
</g>
<defs>
<clipPath id="clip0_6_83">
<rect width="20" height="20" fill="white"/>
</clipPath>
</defs>
</svg>
