<svg width="20" height="20" viewBox="0 0 20 20" fill="none" xmlns="http://www.w3.org/2000/svg">
<path d="M19.5467 4.82001C19.3217 5.52751 19.0183 6.14335 18.6383 6.70251L18.6542 6.67751C18.2808 7.29973 17.835 8.01862 17.3167 8.83418C16.8722 9.47807 16.6369 9.8114 16.6108 9.83418C16.4958 9.97834 16.4158 10.155 16.3883 10.3492L16.3875 10.355C16.41 10.5317 16.4917 10.6858 16.6108 10.8008L16.9442 11.1725C18.7275 13.0053 19.7306 14.2686 19.9533 14.9625C19.9825 15.0392 19.9992 15.1275 19.9992 15.22C19.9992 15.3817 19.9475 15.5308 19.86 15.6533L19.8617 15.6508C19.715 15.8017 19.51 15.895 19.2833 15.895C19.2583 15.895 19.2325 15.8942 19.2083 15.8917H19.2117H17.0192C17.0183 15.8917 17.0167 15.8917 17.015 15.8917C16.7342 15.8917 16.4758 15.7933 16.2733 15.63L16.2758 15.6317C15.9808 15.3892 15.7183 15.1267 15.4833 14.8417L15.4758 14.8317C15.0919 14.3978 14.7514 14.0325 14.4542 13.7358C13.4642 12.7947 12.7336 12.3242 12.2625 12.3242C12.245 12.3225 12.225 12.3217 12.2042 12.3217C12.0667 12.3217 11.9383 12.3642 11.8325 12.4367L11.835 12.435C11.7483 12.5433 11.6958 12.6833 11.6958 12.8342C11.6958 12.8642 11.6975 12.8925 11.7017 12.9217V12.9183C11.6792 13.18 11.6658 13.4842 11.6658 13.7917C11.6658 13.8908 11.6675 13.9892 11.67 14.0875V14.0733V15.0392C11.6783 15.0783 11.6833 15.1233 11.6833 15.1692C11.6833 15.3708 11.5917 15.5508 11.4483 15.67L11.4475 15.6708C11.125 15.8183 10.7483 15.905 10.3508 15.905C10.2658 15.905 10.1825 15.9008 10.1 15.8933L10.1108 15.8942C8.79917 15.8692 7.5825 15.485 6.54834 14.8375L6.5775 14.8542C5.31834 14.0892 4.275 13.0933 3.48 11.9167L3.4575 11.8817C2.7025 10.88 1.99834 9.74835 1.39834 8.55501L1.34 8.42668C0.989169 7.75835 0.625836 6.93668 0.312502 6.09168L0.262502 5.93751C0.135002 5.55751 0.0425024 5.11585 0.00416911 4.65835L0.00250244 4.63751C0.00250244 4.2164 0.25028 4.00585 0.745836 4.00585H2.9375C2.9575 4.00418 2.98084 4.00335 3.005 4.00335C3.21167 4.00335 3.4025 4.07418 3.55334 4.19335L3.55167 4.19168C3.71834 4.37418 3.84167 4.59834 3.9025 4.84834L3.905 4.85835C4.30834 5.99751 4.73584 6.95418 5.2275 7.87085L5.17167 7.75668C5.57334 8.56501 6.0175 9.26085 6.52417 9.90335L6.505 9.87751C6.94945 10.4231 7.29611 10.6958 7.545 10.6958C7.5525 10.6967 7.56167 10.6967 7.57167 10.6967C7.695 10.6967 7.8025 10.63 7.86084 10.53L7.86167 10.5283C7.92334 10.37 7.95917 10.1858 7.95917 9.99418C7.95917 9.95335 7.9575 9.91251 7.95417 9.87251V9.87751V6.64501C7.93667 6.26418 7.84334 5.90834 7.6875 5.58918L7.69417 5.60501C7.59084 5.38501 7.46667 5.19501 7.31917 5.02585L7.32167 5.02918C7.185 4.89251 7.09167 4.71335 7.0625 4.51335L7.06167 4.50835C7.06167 4.36668 7.12667 4.23918 7.22834 4.15585L7.22917 4.15501C7.33 4.06251 7.465 4.00668 7.6125 4.00668H7.61917H11.0742C11.0925 4.00418 11.1133 4.00335 11.135 4.00335C11.2975 4.00335 11.4433 4.07668 11.54 4.19168L11.5408 4.19251C11.6267 4.34918 11.6775 4.53668 11.6775 4.73501C11.6775 4.76668 11.6758 4.79751 11.6733 4.82835V4.82418V9.13501C11.6717 9.15501 11.6708 9.17835 11.6708 9.20168C11.6708 9.35501 11.7133 9.49918 11.7867 9.62168L11.785 9.61835C11.8458 9.70835 11.9475 9.76668 12.0625 9.76668C12.2092 9.75668 12.3433 9.70834 12.4558 9.63168L12.4533 9.63335C12.68 9.47751 12.875 9.30001 13.0442 9.09918L13.0475 9.09501C13.5533 8.52334 14.02 7.89168 14.4267 7.22001L14.4592 7.16168C14.7458 6.68668 15.0558 6.10168 15.3367 5.50085L15.3883 5.37835L15.76 4.63501C15.8892 4.26334 16.2358 4.00168 16.6433 4.00168C16.6592 4.00168 16.675 4.00168 16.6908 4.00251H16.6883H18.8808C19.4731 4.00251 19.6953 4.27501 19.5475 4.82001H19.5467Z" fill="#8197B2"/>
</svg>
