<svg width="20" height="20" viewBox="0 0 20 20" fill="none" xmlns="http://www.w3.org/2000/svg">
<g clip-path="url(#clip0_6_65)">
<path d="M12.7258 11.0083C13.2075 11.1625 13.6242 11.355 14.0117 11.5917L13.9858 11.5767C14.4267 11.7725 14.8075 12.0017 15.155 12.2708L15.1425 12.2617C15.1592 12.3125 15.1692 12.37 15.1692 12.4308C15.1692 12.44 15.1692 12.4483 15.1683 12.4575V12.4567C15.1558 12.8142 15.0767 13.15 14.9425 13.4558L14.9492 13.4383C14.7567 13.8242 14.4358 14.1217 14.0433 14.28L14.0317 14.2842C13.6492 14.4867 13.1975 14.6117 12.7183 14.6267H12.7133C11.7967 14.505 10.9683 14.2233 10.2233 13.8083L10.2592 13.8267C9.40751 13.4367 8.68001 12.9242 8.06251 12.3025L8.06168 12.3017C7.37501 11.5875 6.74584 10.8058 6.18834 9.97333L6.14918 9.91167C5.61918 9.22083 5.28168 8.35667 5.23251 7.41583L5.23168 7.405V7.30167C5.25834 6.48917 5.62168 5.76583 6.18501 5.2625L6.18751 5.26C6.36001 5.08833 6.59668 4.98083 6.85834 4.97583H6.85918C6.94334 4.97833 7.02418 4.985 7.10251 4.99667L7.09168 4.995C7.16418 5.00583 7.24834 5.0125 7.33501 5.01417H7.33751C7.35334 5.0125 7.37084 5.01167 7.38918 5.01167C7.49751 5.01167 7.59834 5.04417 7.68251 5.09917L7.68084 5.09833C7.77001 5.19667 7.83834 5.31583 7.87918 5.44667L7.88084 5.45333C7.94973 5.62556 8.09195 6.00444 8.30751 6.59C8.42001 6.85167 8.53001 7.17417 8.61834 7.50583L8.63001 7.55833C8.56668 7.85917 8.40668 8.115 8.18584 8.29917L8.18334 8.30083C7.88612 8.61528 7.73751 8.81528 7.73751 8.90083C7.74084 8.97417 7.76584 9.04083 7.80501 9.09583L7.80418 9.095C8.14167 9.78583 8.58418 10.3725 9.11751 10.8608L9.12168 10.865C9.68418 11.3725 10.3267 11.8083 11.0233 12.1483L11.0725 12.17C11.1533 12.2225 11.25 12.2558 11.355 12.2608H11.3567C11.4861 12.2608 11.7189 12.0519 12.055 11.6342C12.3911 11.2164 12.6145 11.0075 12.725 11.0075L12.7258 11.0083ZM10.1033 17.855H10.1217C11.2525 17.855 12.3275 17.6175 13.3 17.1892L13.2492 17.2092C15.2125 16.3808 16.7433 14.85 17.5517 12.9392L17.5717 12.8867C17.98 11.9592 18.2175 10.8775 18.2175 9.74083C18.2175 8.60417 17.98 7.5225 17.5517 6.54333L17.5717 6.595C16.7433 4.63167 15.2125 3.10083 13.3017 2.2925L13.2492 2.2725C12.3217 1.86417 11.24 1.62667 10.1033 1.62667C8.96667 1.62667 7.88501 1.86417 6.90584 2.2925L6.95751 2.2725C4.99418 3.10083 3.46334 4.63167 2.65501 6.5425L2.63501 6.595C2.22668 7.52583 1.98918 8.61083 1.98918 9.75083C1.98918 11.535 2.57084 13.1842 3.55501 14.5175L3.53918 14.4958L2.51834 17.5067L5.64501 16.5117C6.88668 17.3533 8.41751 17.855 10.0658 17.855H10.105H10.1033ZM10.1033 0H10.1308C11.4875 0 12.7775 0.285 13.9433 0.799167L13.8825 0.775C16.2367 1.7725 18.0725 3.60833 19.0458 5.89917L19.07 5.9625C19.56 7.07667 19.845 8.37583 19.845 9.74167C19.845 11.1075 19.56 12.4067 19.0458 13.5825L19.07 13.5208C18.0725 15.875 16.2367 17.7108 13.9458 18.6842L13.8825 18.7083C12.7767 19.1983 11.4867 19.4833 10.13 19.4833C10.1208 19.4833 10.1108 19.4833 10.1017 19.4833H10.1033C10.09 19.4833 10.075 19.4833 10.0592 19.4833C8.34334 19.4833 6.73251 19.0325 5.33918 18.2433L5.38668 18.2683L-0.000823975 20L1.75668 14.7675C0.880843 13.3392 0.361676 11.61 0.361676 9.75917C0.361676 8.3875 0.646676 7.0825 1.16084 5.9L1.13668 5.9625C2.13418 3.60833 3.97001 1.7725 6.26084 0.799167L6.32418 0.775C7.43001 0.285 8.72001 0 10.0767 0H10.1042L10.1033 0Z" fill="#8197B2"/>
</g>
<defs>
<clipPath id="clip0_6_65">
<rect width="20" height="20" fill="white"/>
</clipPath>
</defs>
</svg>
