<svg width="46" height="56" viewBox="0 0 46 56" fill="none" xmlns="http://www.w3.org/2000/svg">
<rect x="16.3334" y="25.1975" width="13.3333" height="29.8025" stroke="#8197B2" stroke-width="2"/>
<path fill-rule="evenodd" clip-rule="evenodd" d="M15.3333 35.2593H9.66663H7.66663V37.2593V54V56H9.66663H21H23L15.3333 56V54H9.66663V37.2593H15.3333V35.2593Z" fill="#8197B2"/>
<path fill-rule="evenodd" clip-rule="evenodd" d="M7.66667 42.8642H2H0V44.8642V54V56H2H7.66667V54H2V44.8642H7.66667V42.8642Z" fill="#8197B2"/>
<path fill-rule="evenodd" clip-rule="evenodd" d="M30.6667 56H36.3334H38.3334V54V37.2593V35.2593H36.3334H30.6667V37.2593H36.3334V54H30.6667V56Z" fill="#8197B2"/>
<path fill-rule="evenodd" clip-rule="evenodd" d="M38.3333 56H44H46V54V44.8642V42.8642H44H38.3333V44.8642H44V54H38.3333V56Z" fill="#8197B2"/>
<line x1="16.7273" y1="50.1605" x2="29.2728" y2="50.1605" stroke="#8197B2" stroke-width="2"/>
<path d="M22.0517 11.6382C22.3513 10.7235 23.6486 10.7235 23.9482 11.6382C24.3509 12.8677 25.5034 13.6966 26.7924 13.6966C27.771 13.6966 28.1334 14.9301 27.3867 15.4682C26.3341 16.2268 25.8944 17.5799 26.298 18.812C26.5812 19.6767 25.5666 20.4795 24.7599 19.8981C23.713 19.1436 22.2869 19.1436 21.2401 19.8981C20.4333 20.4795 19.4187 19.6767 19.7019 18.812C20.1055 17.5799 19.6658 16.2268 18.6132 15.4682C17.8665 14.9301 18.229 13.6966 19.2075 13.6966C20.4965 13.6966 21.649 12.8677 22.0517 11.6382Z" stroke="#8197B2" stroke-width="2"/>
<rect x="22.303" y="4.14815" width="4.14815" height="1.39394" rx="0.69697" transform="rotate(-90 22.303 4.14815)" fill="#8197B2"/>
<rect x="34.1515" y="13.1358" width="4.18182" height="1.38272" rx="0.691358" fill="#8197B2"/>
<rect x="7.66663" y="13.1358" width="4.18182" height="1.38272" rx="0.691358" fill="#8197B2"/>
<rect width="4.16502" height="1.38834" rx="0.69417" transform="matrix(0.709959 0.704243 -0.709959 0.704243 11.5598 3.57536)" fill="#8197B2"/>
<rect width="4.16502" height="1.38834" rx="0.69417" transform="matrix(0.709959 -0.704243 0.709959 0.704243 30.6666 6.39)" fill="#8197B2"/>
</svg>
