<svg width="46" height="58" viewBox="0 0 46 58" fill="none" xmlns="http://www.w3.org/2000/svg">
<path d="M19.7143 49.4061L17.8361 53.3693C17.5053 54.0674 18.0314 54.9522 18.7672 54.9517V54.9517C19.0904 54.9515 19.4072 55.1331 19.6013 55.4335L19.6528 55.5133C20.0853 56.1827 20.9793 56.1479 21.2791 55.45L22.8148 51.8746" stroke="#8197B2" stroke-width="2"/>
<path d="M24.3301 51.8259L25.8692 55.4415C26.1675 56.142 27.0635 56.1785 27.4968 55.5078L27.5448 55.4335C27.7389 55.1331 28.0518 54.9515 28.375 54.9518L28.439 54.9518C29.1642 54.9523 29.6777 54.0903 29.368 53.3921L27.6 49.4061" stroke="#8197B2" stroke-width="2"/>
<path d="M4.25714 40.6222C4.25714 42.8699 3.97077 44.865 3.53287 46.2647C3.31206 46.9705 3.06988 47.4689 2.84776 47.7692C2.74541 47.9076 2.67133 47.9739 2.62857 48.0047C2.58581 47.9739 2.51174 47.9076 2.40938 47.7692C2.18726 47.4689 1.94509 46.9705 1.72427 46.2647C1.28637 44.865 1 42.8699 1 40.6222C1 38.3745 1.28637 36.3794 1.72427 34.9797C1.94509 34.2739 2.18726 33.7755 2.40938 33.4752C2.51174 33.3368 2.58581 33.2705 2.62857 33.2397C2.67133 33.2705 2.74541 33.3368 2.84776 33.4752C3.06988 33.7755 3.31206 34.2739 3.53287 34.9797C3.97077 36.3794 4.25714 38.3745 4.25714 40.6222ZM2.58569 48.0295C2.58568 48.0295 2.58678 48.029 2.589 48.0284C2.5868 48.0293 2.58569 48.0296 2.58569 48.0295ZM2.66814 48.0284C2.67036 48.029 2.67146 48.0295 2.67145 48.0295C2.67145 48.0296 2.67034 48.0293 2.66814 48.0284ZM2.67145 33.2149C2.67146 33.2149 2.67036 33.2154 2.66815 33.216C2.67034 33.2151 2.67145 33.2148 2.67145 33.2149ZM2.589 33.216C2.58678 33.2154 2.58568 33.2149 2.58569 33.2149C2.58569 33.2148 2.5868 33.2151 2.589 33.216Z" stroke="#8197B2" stroke-width="2"/>
<path d="M45 40.6222C45 42.8699 44.7136 44.865 44.2757 46.2647C44.0549 46.9705 43.8127 47.4689 43.5906 47.7692C43.4883 47.9076 43.4142 47.9739 43.3714 48.0047C43.3287 47.9739 43.2546 47.9076 43.1522 47.7692C42.9301 47.4689 42.6879 46.9705 42.4671 46.2647C42.0292 44.865 41.7429 42.8699 41.7429 40.6222C41.7429 38.3745 42.0292 36.3794 42.4671 34.9797C42.6879 34.2739 42.9301 33.7755 43.1522 33.4752C43.2546 33.3368 43.3287 33.2705 43.3714 33.2397C43.4142 33.2705 43.4883 33.3368 43.5906 33.4752C43.8127 33.7755 44.0549 34.2739 44.2757 34.9797C44.7136 36.3794 45 38.3745 45 40.6222ZM43.3285 48.0295C43.3285 48.0295 43.3296 48.029 43.3319 48.0284C43.3297 48.0293 43.3286 48.0296 43.3285 48.0295ZM43.411 48.0284C43.4132 48.029 43.4143 48.0295 43.4143 48.0295C43.4143 48.0296 43.4132 48.0293 43.411 48.0284ZM43.4143 33.2149C43.4143 33.2149 43.4132 33.2154 43.411 33.216C43.4132 33.2151 43.4143 33.2148 43.4143 33.2149ZM43.3319 33.216C43.3296 33.2154 43.3285 33.2149 43.3285 33.2149C43.3286 33.2148 43.3297 33.2151 43.3319 33.216Z" stroke="#8197B2" stroke-width="2"/>
<path fill-rule="evenodd" clip-rule="evenodd" d="M23.3301 33.5081C19.3427 33.5179 14.2235 33.1397 10.0804 32.7557C8.01323 32.5641 6.19728 32.3719 4.89832 32.2276C4.24893 32.1555 3.729 32.0953 3.37178 32.0533C3.19318 32.0322 3.05527 32.0157 2.96222 32.0045L2.8568 31.9917L2.8303 31.9885L2.82377 31.9877L2.82221 31.9875L2.82185 31.9874L2.69945 32.9799C2.57712 33.9724 2.57721 33.9724 2.57734 33.9724L2.57785 33.9725L2.57972 33.9727L2.58688 33.9736L2.61465 33.977L2.72271 33.9901C2.81756 34.0016 2.95735 34.0183 3.13792 34.0395C3.49904 34.0821 4.02334 34.1427 4.67749 34.2154C5.9856 34.3607 7.81395 34.5542 9.89579 34.7472C14.0505 35.1322 19.248 35.5181 23.335 35.5081C27.2907 35.4983 32.3205 35.1125 36.3411 34.7323C38.3557 34.5419 40.125 34.352 41.3908 34.2097C42.0238 34.1386 42.5311 34.0793 42.8806 34.0378C43.0553 34.0171 43.1906 34.0007 43.2824 33.9896L43.3869 33.9768L43.4138 33.9735L43.4207 33.9726L43.4225 33.9724L43.423 33.9723C43.4232 33.9723 43.4232 33.9723 43.3 32.9799L43.1767 31.9876L43.1764 31.9876L43.1749 31.9878L43.1686 31.9886L43.1429 31.9917L43.0409 32.0042C42.9509 32.0151 42.8174 32.0313 42.6446 32.0518C42.2989 32.0929 41.7958 32.1516 41.1674 32.2223C39.9104 32.3635 38.1532 32.5521 36.1528 32.7412C32.1434 33.1203 27.1894 33.4986 23.3301 33.5081ZM18.7445 46.5561C15.7717 46.6269 12.6432 46.7516 9.94651 46.8765C7.86753 46.9728 6.04107 47.0694 4.73425 47.1419C4.08079 47.1782 3.55713 47.2085 3.19665 47.2297C3.01641 47.2403 2.87695 47.2486 2.78246 47.2543L2.67495 47.2608L2.64746 47.2625L2.64045 47.2629L2.63865 47.263L2.63818 47.2631C2.63807 47.2631 2.638 47.2631 2.69945 48.2612C2.76091 49.2593 2.76094 49.2593 2.76101 49.2593L2.7614 49.2593L2.76304 49.2592L2.76973 49.2588L2.79658 49.2571L2.90275 49.2507C2.99634 49.2451 3.13484 49.2368 3.31408 49.2262C3.67258 49.2051 4.19403 49.175 4.84509 49.1389C6.14729 49.0666 7.96749 48.9703 10.0391 48.8744C12.9147 48.7412 16.2668 48.609 19.3875 48.542C19.0727 47.9428 18.8508 47.2721 18.7445 46.5561ZM28.5818 46.5849C28.4723 47.3003 28.2473 47.9701 27.9295 48.5678C30.7211 48.641 33.6507 48.7614 36.1949 48.8817C38.1996 48.9764 39.9611 49.0708 41.2212 49.1416C41.8513 49.177 42.3559 49.2064 42.7028 49.227C42.8763 49.2373 43.0103 49.2454 43.1009 49.2509L43.2036 49.2572L43.2296 49.2588L43.2361 49.2591L43.2377 49.2592L43.238 49.2593C43.2381 49.2593 43.2381 49.2593 43.3 48.2612C43.3619 47.2631 43.3619 47.2631 43.3618 47.2631L43.3613 47.2631L43.3596 47.263L43.3528 47.2625L43.3262 47.2609L43.2221 47.2546C43.1307 47.249 42.9957 47.2409 42.8213 47.2305C42.4725 47.2098 41.9657 47.1802 41.3333 47.1447C40.0687 47.0737 38.3012 46.979 36.2893 46.8839C33.9225 46.772 31.212 46.6595 28.5818 46.5849Z" fill="#8197B2"/>
<path d="M27.9143 46.7327C27.9143 49.7016 25.8725 51.8432 23.6572 51.8432C21.4419 51.8432 19.4 49.7016 19.4 46.7327C19.4 43.7638 21.4419 41.6222 23.6572 41.6222C25.8725 41.6222 27.9143 43.7638 27.9143 46.7327Z" stroke="#8197B2" stroke-width="2"/>
<rect x="24.9714" y="34.5117" width="1.31429" height="7.63814" fill="#8197B2"/>
<rect x="21.0286" y="34.5117" width="1.31429" height="7.63814" fill="#8197B2"/>
<path d="M31.8572 23.4364C31.8572 23.9656 31.3428 24.7686 29.7472 25.4973C28.2401 26.1854 26.088 26.6374 23.6572 26.6374C21.2264 26.6374 19.0742 26.1854 17.5671 25.4973C15.9715 24.7686 15.4572 23.9656 15.4572 23.4364C15.4572 22.9072 15.9715 22.1041 17.5671 21.3755C19.0742 20.6873 21.2264 20.2354 23.6572 20.2354C26.088 20.2354 28.2401 20.6873 29.7472 21.3755C31.3428 22.1041 31.8572 22.9072 31.8572 23.4364Z" stroke="#8197B2" stroke-width="2"/>
<path d="M14.4572 14.2706L15.1143 13.8887L15.7714 14.6525V23.0545L14.4572 23.4215V14.2706Z" fill="#8197B2"/>
<path d="M31.5428 14.6525L32.2 13.8887L32.8571 14.2706V23.4364L31.5428 23.0545V14.6525Z" fill="#8197B2"/>
<path fill-rule="evenodd" clip-rule="evenodd" d="M29.3318 13.1194C30.6119 13.7039 30.8177 14.1891 30.8508 14.2706L31.5429 14.2706V16.4357C32.3772 15.8034 32.8572 15.0626 32.8572 14.2706C32.8572 11.9505 28.7382 10.0696 23.6572 10.0696C18.5761 10.0696 14.4572 11.9505 14.4572 14.2706C14.4572 15.0626 14.9371 15.8034 15.7714 16.4357V14.2706L16.4635 14.2706C16.4966 14.1891 16.7024 13.7039 17.9825 13.1194C19.3317 12.5033 21.3361 12.0696 23.6572 12.0696C25.9782 12.0696 27.9826 12.5033 29.3318 13.1194Z" fill="#8197B2"/>
<rect x="36.8" y="9.30582" width="0.657143" height="3.81907" fill="#8197B2"/>
<path fill-rule="evenodd" clip-rule="evenodd" d="M24.6876 1.12043C24.0535 0.739197 23.2607 0.739193 22.6266 1.12043L5.5345 11.3962C4.23062 12.1801 4.24468 14.0751 5.56006 14.8395L14.6118 20.1L15.6167 18.3708L6.565 13.1103L23.6571 2.8345L40.7492 13.1103L38.7714 14.2597V16.573L41.7541 14.8395C43.0695 14.0751 43.0836 12.1801 41.7797 11.3962L24.6876 1.12043ZM35.8696 18.2594C35.6359 18.0763 35.4857 17.7915 35.4857 17.4716V16.1693L31.6975 18.3708L32.7024 20.1L35.8696 18.2594Z" fill="#8197B2"/>
<rect x="35.9857" y="13.6249" width="2.28571" height="4.3467" rx="0.5" stroke="#8197B2"/>
</svg>
