<svg width="46" height="55" viewBox="0 0 46 55" fill="none" xmlns="http://www.w3.org/2000/svg">
<mask id="path-1-inside-1_14_41" fill="white">
<path fill-rule="evenodd" clip-rule="evenodd" d="M0.165051 10.8613C0.0583883 10.9897 0 11.1514 0 11.3183C0 11.7134 0.320259 12.0336 0.715319 12.0336H9.22222C9.77451 12.0336 10.2222 11.5859 10.2222 11.0336V1.52173C10.2222 0.585623 9.05107 0.162685 8.45296 0.882797L0.165051 10.8613Z"/>
</mask>
<path d="M0.165051 10.8613L1.70358 12.1391L0.165051 10.8613ZM9.22222 10.0336H0.715319V14.0336H9.22222V10.0336ZM8.22222 1.52173V11.0336H12.2222V1.52173H8.22222ZM6.91443 -0.395069L-1.37347 9.58341L1.70358 12.1391L9.99148 2.16066L6.91443 -0.395069ZM12.2222 1.52173C12.2222 -1.28659 8.70876 -2.5554 6.91443 -0.395069L9.99148 2.16066C9.39338 2.88077 8.22222 2.45784 8.22222 1.52173H12.2222ZM9.22222 14.0336C10.8791 14.0336 12.2222 12.6905 12.2222 11.0336H8.22222C8.22222 10.4813 8.66994 10.0336 9.22222 10.0336V14.0336ZM2 11.3183C2 11.6181 1.89514 11.9085 1.70358 12.1391L-1.37347 9.58341C-1.77836 10.0709 -2 10.6846 -2 11.3183H2ZM-2 11.3183C-2 12.8179 -0.784311 14.0336 0.715319 14.0336V10.0336C1.42483 10.0336 2 10.6088 2 11.3183H-2Z" fill="#8197B2" mask="url(#path-1-inside-1_14_41)"/>
<path fill-rule="evenodd" clip-rule="evenodd" d="M16.873 7.15625H28.3969C28.9491 7.15625 29.3969 7.60397 29.3969 8.15625V9.03125C29.3969 9.58353 28.9491 10.0312 28.3969 10.0312H16.873C16.3208 10.0312 15.873 9.58353 15.873 9.03125V8.15625C15.873 7.60397 16.3208 7.15625 16.873 7.15625ZM13.873 8.15625C13.873 6.4994 15.2162 5.15625 16.873 5.15625H28.3969C30.0537 5.15625 31.3969 6.4994 31.3969 8.15625V9.03125C31.3969 10.6881 30.0537 12.0312 28.3969 12.0312H19.7143V10.3125H17.5238V12.0312H16.873C15.2162 12.0312 13.873 10.6881 13.873 9.03125V8.15625Z" fill="#8197B2"/>
<rect x="5.84131" y="19.7656" width="17.5238" height="1.71875" rx="0.859375" fill="#8197B2"/>
<rect x="5.84131" y="24.9219" width="17.5238" height="1.71875" rx="0.859375" fill="#8197B2"/>
<rect x="5.84131" y="35.2344" width="17.5238" height="1.71875" rx="0.859375" fill="#8197B2"/>
<rect x="5.84131" y="40.3906" width="17.5238" height="1.71875" rx="0.859375" fill="#8197B2"/>
<rect x="5.84131" y="45.5469" width="17.5238" height="1.71875" rx="0.859375" fill="#8197B2"/>
<rect x="5.84131" y="30.0781" width="17.5238" height="1.71875" rx="0.859375" fill="#8197B2"/>
<path fill-rule="evenodd" clip-rule="evenodd" d="M0 49V11.1719H2V49C2 51.2091 3.79087 53 6.00001 53H31.2381C33.4472 53 35.2381 51.2091 35.2381 49V48.8319C35.6535 48.9325 36.0774 48.9844 36.5079 48.9844C36.7536 48.9844 36.9971 48.9675 37.2381 48.9343V49C37.2381 52.3137 34.5518 55 31.2381 55H6.00001C2.6863 55 0 52.3137 0 49ZM37.2381 14.6595V6C37.2381 2.68629 34.5518 0 31.2381 0H9.49206V2H31.2381C33.4472 2 35.2381 3.79086 35.2381 6V14.7618C35.6535 14.6613 36.0774 14.6094 36.5079 14.6094C36.7536 14.6094 36.9971 14.6263 37.2381 14.6595Z" fill="#8197B2"/>
<path d="M32.127 36.9531V44.7902C32.127 45.6896 33.2217 46.1318 33.8464 45.4848L35.7885 43.4732C36.1817 43.066 36.8341 43.066 37.2273 43.4732L39.1694 45.4848C39.7942 46.1318 40.8889 45.6896 40.8889 44.7902V36.9531" stroke="#8197B2" stroke-width="2"/>
<path d="M37.5068 37.9738C36.9036 37.5694 36.1123 37.5694 35.5091 37.9737C35.0401 37.3929 34.26 37.1666 33.557 37.3983C33.2611 36.6707 32.5356 36.2197 31.7628 36.2647L31.7503 36.1853C31.6263 35.3968 31.0221 34.7748 30.2457 34.6226L30.2543 34.4761C30.3014 33.6647 29.849 32.9072 29.1134 32.5636L29.1717 32.3564C29.3838 31.6021 29.1359 30.7933 28.5375 30.2875L27.892 31.0512L28.5375 30.2875L28.4526 30.2157L28.5602 30.0186C28.9267 29.3471 28.878 28.5253 28.4348 27.9018L28.3176 27.7369L27.5089 28.3117L28.3176 27.7369L28.4282 27.6161C28.9487 27.047 29.0957 26.2293 28.8059 25.5145L28.7197 25.3021L28.7595 25.2767C29.4349 24.8454 29.7876 24.0524 29.6557 23.2619L29.6255 23.0807C30.3862 22.8318 30.9176 22.1385 30.9567 21.3351L29.9579 21.2864L30.9567 21.3351L30.9625 21.2163C31.7451 21.1624 32.416 20.6185 32.6238 19.8515L31.6586 19.5901L32.6238 19.8515L32.6324 19.8196C33.3746 19.96 34.1336 19.6206 34.5206 18.9615C35.1769 19.2808 35.9669 19.1681 36.5079 18.6735C37.0489 19.1681 37.839 19.2808 38.4952 18.9615C38.8823 19.6206 39.6413 19.96 40.3834 19.8196L40.3921 19.8515C40.5999 20.6185 41.2708 21.1624 42.0533 21.2163L42.0591 21.3351C42.0983 22.1385 42.6297 22.8318 43.3904 23.0807L43.3602 23.2619C43.2282 24.0524 43.5809 24.8454 44.2564 25.2767L44.2961 25.3021L44.21 25.5145C43.9202 26.2293 44.0671 27.047 44.5877 27.6161L44.6982 27.7369L45.4361 27.0619L44.6982 27.7369L44.5811 27.9018C44.1379 28.5253 44.0892 29.3471 44.4557 30.0186L44.5633 30.2157L44.4783 30.2875C43.8799 30.7933 43.632 31.6021 43.8441 32.3564L43.9024 32.5636C43.1669 32.9072 42.7144 33.6647 42.7616 34.476L42.7701 34.6226C41.9938 34.7748 41.3896 35.3968 41.2656 36.1853L41.2531 36.2647C40.4803 36.2197 39.7548 36.6707 39.4589 37.3983C38.7559 37.1666 37.9757 37.3929 37.5068 37.9738Z" stroke="#8197B2" stroke-width="2"/>
<mask id="path-13-inside-2_14_41" fill="white">
<path d="M36.1356 21.9004C36.3342 21.6785 36.6816 21.6785 36.8802 21.9004L36.8883 21.9095C37.0484 22.0884 37.3153 22.1234 37.516 21.9917C37.7547 21.8353 38.0763 21.9176 38.2104 22.1695L38.2513 22.2462C38.3627 22.4552 38.6068 22.5558 38.8331 22.4859C39.1003 22.4033 39.3826 22.5587 39.4557 22.8286L39.4921 22.9629C39.5545 23.1931 39.7642 23.3525 40.0028 23.351C40.2844 23.3492 40.5173 23.5696 40.5311 23.8509L40.5387 24.0068C40.5506 24.2514 40.716 24.4618 40.9509 24.5312C41.23 24.6136 41.4038 24.8913 41.3559 25.1785L41.3338 25.3111C41.2919 25.562 41.4038 25.8137 41.6182 25.9507C41.8761 26.1154 41.9798 26.4406 41.8648 26.7242L41.8345 26.799C41.7352 27.0439 41.7856 27.3242 41.964 27.5192C42.182 27.7575 42.204 28.1157 42.0169 28.3789L42.009 28.39C41.8534 28.609 41.8363 28.8975 41.965 29.1333L41.9869 29.1734C42.1375 29.4494 42.0733 29.7934 41.8331 29.9964C41.6349 30.1639 41.5528 30.4317 41.6231 30.6815L41.6531 30.7883C41.7338 31.0752 41.5936 31.3782 41.3227 31.5024C41.0959 31.6064 40.9562 31.8388 40.9707 32.0878L40.9794 32.2374C40.9959 32.5224 40.7913 32.7726 40.5086 32.8127C40.2698 32.8467 40.0811 33.0326 40.0436 33.2709L40.0199 33.4215C39.9765 33.6977 39.7176 33.8866 39.4413 33.8437C39.207 33.8074 38.9788 33.9382 38.8918 34.1588L38.849 34.2675C38.7458 34.5295 38.4424 34.6494 38.1879 34.5289C37.9729 34.4271 37.7158 34.4957 37.58 34.691L37.5507 34.7331C37.3847 34.972 37.0483 35.0143 36.8283 34.824C36.6443 34.6649 36.3715 34.6649 36.1875 34.824C35.9675 35.0143 35.6311 34.972 35.4651 34.7331L35.4358 34.691C35.3 34.4957 35.0429 34.4271 34.8279 34.5289C34.5734 34.6494 34.27 34.5295 34.1668 34.2675L34.124 34.1588C34.037 33.9382 33.8088 33.8074 33.5745 33.8437C33.2982 33.8866 33.0393 33.6977 32.9959 33.4215L32.9722 33.2709C32.9347 33.0326 32.746 32.8467 32.5072 32.8127C32.2245 32.7726 32.0199 32.5224 32.0364 32.2374L32.0451 32.0878C32.0596 31.8388 31.9199 31.6064 31.6931 31.5024C31.4222 31.3782 31.282 31.0752 31.3627 30.7883L31.3927 30.6815C31.463 30.4317 31.3809 30.1639 31.1827 29.9964C30.9425 29.7934 30.8783 29.4494 31.0289 29.1734L31.0508 29.1333C31.1795 28.8975 31.1624 28.609 31.0068 28.39L30.9989 28.3789C30.8118 28.1157 30.8338 27.7575 31.0518 27.5192C31.2302 27.3242 31.2806 27.0439 31.1813 26.799L31.151 26.7242C31.036 26.4406 31.1396 26.1154 31.3976 25.9507C31.612 25.8137 31.7239 25.562 31.682 25.3111L31.6599 25.1785C31.612 24.8913 31.7858 24.6136 32.0649 24.5312C32.2998 24.4618 32.4652 24.2514 32.4771 24.0068L32.4847 23.8509C32.4984 23.5696 32.7314 23.3492 33.013 23.351C33.2516 23.3525 33.4613 23.1931 33.5237 22.9629L33.56 22.8286C33.6332 22.5587 33.9155 22.4033 34.1827 22.4859C34.409 22.5558 34.6531 22.4552 34.7645 22.2462L34.8053 22.1695C34.9395 21.9176 35.2611 21.8353 35.4998 21.9917C35.7005 22.1234 35.9674 22.0884 36.1275 21.9095L36.1356 21.9004Z"/>
</mask>
<path d="M36.1275 21.9095L34.6371 20.5758L36.1275 21.9095ZM34.8053 22.1695L36.5705 23.1097L34.8053 22.1695ZM34.7645 22.2462L32.9993 21.3059L34.7645 22.2462ZM33.5237 22.9629L31.5933 22.4399L33.5237 22.9629ZM32.4771 24.0068L30.4795 23.9093L32.4771 24.0068ZM31.6599 25.1785L29.6872 25.5077L31.6599 25.1785ZM31.682 25.3111L29.7093 25.6404L31.682 25.3111ZM31.151 26.7242L29.2976 27.4758L31.151 26.7242ZM31.0068 28.39L29.3766 29.5487L31.0068 28.39ZM31.0289 29.1734L29.2734 28.2152L31.0289 29.1734ZM31.3927 30.6815L29.4674 30.14L31.3927 30.6815ZM32.0364 32.2374L30.0398 32.1213L32.0364 32.2374ZM32.9722 33.2709L30.9965 33.5816L32.9722 33.2709ZM32.9959 33.4215L31.0202 33.7322L32.9959 33.4215ZM34.124 34.1588L32.2633 34.8922L34.124 34.1588ZM35.4358 34.691L33.7935 35.8325L35.4358 34.691ZM35.4651 34.7331L37.1073 33.5916L35.4651 34.7331ZM37.5507 34.7331L35.9085 33.5916L37.5507 34.7331ZM37.58 34.691L39.2222 35.8325L37.58 34.691ZM38.849 34.2675L36.9883 33.5341L38.849 34.2675ZM38.8918 34.1588L40.7525 34.8922L38.8918 34.1588ZM40.0199 33.4215L41.9956 33.7322L40.0199 33.4215ZM40.0436 33.2709L42.0193 33.5816L40.0436 33.2709ZM40.9794 32.2374L38.9827 32.3535L40.9794 32.2374ZM40.9707 32.0878L38.974 32.2038L40.9707 32.0878ZM41.6531 30.7883L43.5784 30.2468L41.6531 30.7883ZM41.6231 30.6815L43.5484 30.1401L41.6231 30.6815ZM41.9869 29.1734L40.2313 30.1315L41.9869 29.1734ZM42.009 28.39L40.3789 27.2313L42.009 28.39ZM41.965 29.1333L40.2094 30.0914L41.965 29.1333ZM42.0169 28.3789L43.6471 29.5376L42.0169 28.3789ZM41.8345 26.799L43.6879 27.5506L41.8345 26.799ZM41.8648 26.7242L43.7182 27.4758L41.8648 26.7242ZM41.3338 25.3111L43.3065 25.6404L41.3338 25.3111ZM41.3559 25.1785L43.3286 25.5077L41.3559 25.1785ZM40.5387 24.0068L42.5363 23.9093L40.5387 24.0068ZM40.5311 23.8509L38.5334 23.9483L40.5311 23.8509ZM39.4921 22.9629L37.5617 23.4859L39.4921 22.9629ZM38.2513 22.2462L40.0165 21.3059L38.2513 22.2462ZM36.8802 21.9004L35.3898 23.2341L36.8802 21.9004ZM36.1356 21.9004L37.626 23.2341L36.1356 21.9004ZM35.3898 23.2341L35.3979 23.2432L38.3787 20.5758L38.3705 20.5667L35.3898 23.2341ZM36.4453 23.1097L36.4861 23.1864L40.0165 21.3059L39.9756 21.2292L36.4453 23.1097ZM37.5253 23.3516L37.5617 23.4859L41.4225 22.4399L41.3862 22.3056L37.5253 23.3516ZM38.5334 23.9483L38.541 24.1042L42.5363 23.9093L42.5287 23.7535L38.5334 23.9483ZM39.3832 24.8492L39.3611 24.9818L43.3065 25.6404L43.3286 25.5077L39.3832 24.8492ZM40.0114 25.9727L39.9811 26.0474L43.6879 27.5506L43.7182 27.4758L40.0114 25.9727ZM40.3867 27.2203L40.3789 27.2313L43.6392 29.5487L43.6471 29.5376L40.3867 27.2203ZM40.2094 30.0914L40.2313 30.1315L43.7424 28.2152L43.7206 28.1752L40.2094 30.0914ZM39.6977 31.2229L39.7278 31.3297L43.5784 30.2468L43.5484 30.1401L39.6977 31.2229ZM38.974 32.2038L38.9827 32.3535L42.976 32.1213L42.9673 31.9717L38.974 32.2038ZM38.0679 32.9602L38.0442 33.1108L41.9956 33.7322L42.0193 33.5816L38.0679 32.9602ZM37.0311 33.4255L36.9883 33.5341L40.7097 35.0008L40.7525 34.8922L37.0311 33.4255ZM35.9377 33.5495L35.9085 33.5916L39.193 35.8746L39.2222 35.8325L35.9377 33.5495ZM37.1073 33.5916L37.0781 33.5495L33.7935 35.8325L33.8228 35.8746L37.1073 33.5916ZM36.0275 33.5341L35.9847 33.4255L32.2633 34.8922L32.3061 35.0008L36.0275 33.5341ZM34.9716 33.1108L34.9479 32.9602L30.9965 33.5816L31.0202 33.7322L34.9716 33.1108ZM34.0331 32.3535L34.0418 32.2038L30.0485 31.9717L30.0398 32.1213L34.0331 32.3535ZM33.288 31.3297L33.318 31.223L29.4674 30.14L29.4374 30.2468L33.288 31.3297ZM32.7845 30.1315L32.8064 30.0914L29.2952 28.1752L29.2734 28.2152L32.7845 30.1315ZM32.6369 27.2313L32.6291 27.2203L29.3687 29.5376L29.3766 29.5487L32.6369 27.2313ZM33.0347 26.0474L33.0044 25.9727L29.2976 27.4758L29.3279 27.5506L33.0347 26.0474ZM33.6547 24.9818L33.6326 24.8492L29.6872 25.5077L29.7093 25.6404L33.6547 24.9818ZM34.4748 24.1042L34.4824 23.9483L30.4871 23.7535L30.4795 23.9093L34.4748 24.1042ZM35.4541 23.4859L35.4905 23.3516L31.6296 22.3056L31.5933 22.4399L35.4541 23.4859ZM36.5297 23.1864L36.5705 23.1097L33.0402 21.2292L32.9993 21.3059L36.5297 23.1864ZM37.6178 23.2432L37.626 23.2341L34.6453 20.5667L34.6371 20.5758L37.6178 23.2432ZM34.4033 23.6644C35.4315 24.3384 36.798 24.1593 37.6178 23.2432L34.6371 20.5758C35.1367 20.0174 35.9695 19.9083 36.5962 20.3191L34.4033 23.6644ZM36.5705 23.1097C36.1518 23.8959 35.1483 24.1527 34.4033 23.6644L36.5962 20.3191C35.3738 19.5178 33.7273 19.9392 33.0402 21.2292L36.5705 23.1097ZM33.5921 24.3967C34.7348 24.7499 35.9674 24.2421 36.5297 23.1864L32.9993 21.3059C33.3389 20.6684 34.0832 20.3618 34.7733 20.5751L33.5921 24.3967ZM35.4905 23.3516C35.2675 24.1745 34.4066 24.6484 33.5921 24.3967L34.7733 20.5751C33.4245 20.1581 31.9988 20.943 31.6296 22.3056L35.4905 23.3516ZM33.0001 25.3509C34.1466 25.3583 35.1543 24.5925 35.4541 23.4859L31.5933 22.4399C31.7683 21.7938 32.3566 21.3467 33.0259 21.351L33.0001 25.3509ZM34.4824 23.9483C34.4439 24.7375 33.7902 25.356 33.0001 25.3509L33.0259 21.351C31.6727 21.3423 30.553 22.4018 30.4871 23.7535L34.4824 23.9483ZM32.6314 26.4493C33.6819 26.139 34.4214 25.1983 34.4748 24.1042L30.4795 23.9093C30.509 23.3045 30.9177 22.7846 31.4985 22.6131L32.6314 26.4493ZM33.6326 24.8492C33.7511 25.5589 33.3215 26.2455 32.6314 26.4493L31.4985 22.6131C30.2501 22.9817 29.4729 24.2238 29.6872 25.5077L33.6326 24.8492ZM32.4741 27.6362C33.3639 27.0679 33.8286 26.0233 33.6547 24.9818L29.7093 25.6404C29.6193 25.1008 29.86 24.5595 30.3211 24.2651L32.4741 27.6362ZM33.0044 25.9727C33.2517 26.5825 33.0287 27.282 32.4741 27.6362L30.3211 24.2651C29.2506 24.9487 28.8202 26.2988 29.2976 27.4758L33.0044 25.9727ZM32.5275 28.8691C33.2265 28.105 33.4238 27.0071 33.0347 26.0474L29.3279 27.5506C29.1374 27.0808 29.234 26.5433 29.5761 26.1693L32.5275 28.8691ZM32.6291 27.2203C32.9879 27.7252 32.9456 28.4121 32.5275 28.8691L29.5761 26.1693C28.722 27.1029 28.6356 28.5062 29.3687 29.5376L32.6291 27.2203ZM32.8064 30.0914C33.3015 29.1841 33.2358 28.0738 32.6369 27.2313L29.3766 29.5487C29.089 29.1441 29.0574 28.6109 29.2952 28.1752L32.8064 30.0914ZM32.4738 28.469C32.959 28.8791 33.0888 29.5738 32.7845 30.1315L29.2734 28.2152C28.6677 29.325 28.9261 30.7077 29.8916 31.5238L32.4738 28.469ZM33.318 31.223C33.6004 30.2189 33.2704 29.1423 32.4738 28.469L29.8916 31.5238C29.4913 31.1855 29.3255 30.6446 29.4674 30.14L33.318 31.223ZM32.5268 29.6844C33.151 29.9706 33.4739 30.6686 33.288 31.3297L29.4374 30.2468C29.0901 31.4817 29.6934 32.7857 30.8595 33.3204L32.5268 29.6844ZM34.0418 32.2038C34.1041 31.1321 33.5026 30.1319 32.5268 29.6844L30.8595 33.3204C30.3371 33.0808 30.0152 32.5454 30.0485 31.9717L34.0418 32.2038ZM32.7886 30.8326C33.5358 30.9388 34.0769 31.6001 34.0331 32.3535L30.0398 32.1213C29.9629 33.4448 30.9133 34.6063 32.2258 34.7928L32.7886 30.8326ZM34.9479 32.9602C34.7739 31.8536 33.8977 30.9903 32.7886 30.8326L32.2258 34.7928C31.5943 34.7031 31.0955 34.2116 30.9965 33.5816L34.9479 32.9602ZM33.2677 31.8674C34.0813 31.7411 34.8437 32.2974 34.9716 33.1108L31.0202 33.7322C31.2349 35.0981 32.515 36.0322 33.8813 35.8201L33.2677 31.8674ZM35.9847 33.4255C35.5547 32.3347 34.4262 31.6875 33.2677 31.8674L33.8813 35.8201C33.1914 35.9272 32.5193 35.5418 32.2633 34.8922L35.9847 33.4255ZM33.972 32.7213C34.7633 32.3466 35.7064 32.7196 36.0275 33.5341L32.3061 35.0008C32.8336 36.3393 34.3835 36.9522 35.6837 36.3365L33.972 32.7213ZM37.0781 33.5495C36.3843 32.5514 35.0706 32.2011 33.972 32.7213L35.6837 36.3365C35.0152 36.6531 34.2157 36.4399 33.7935 35.8325L37.0781 33.5495ZM34.8791 33.3114C35.5576 32.7244 36.5953 32.8549 37.1073 33.5916L33.8228 35.8746C34.6669 37.0891 36.3774 37.3042 37.496 36.3366L34.8791 33.3114ZM38.1367 33.3114C37.2015 32.5024 35.8143 32.5024 34.8791 33.3114L37.496 36.3366C36.9287 36.8273 36.0871 36.8273 35.5198 36.3366L38.1367 33.3114ZM35.9085 33.5916C36.4205 32.8549 37.4581 32.7244 38.1367 33.3114L35.5198 36.3366C36.6384 37.3042 38.3489 37.0891 39.193 35.8746L35.9085 33.5916ZM39.0438 32.7213C37.9452 32.2011 36.6315 32.5514 35.9377 33.5495L39.2222 35.8325C38.8001 36.4399 38.0006 36.6531 37.332 36.3365L39.0438 32.7213ZM36.9883 33.5341C37.3093 32.7196 38.2525 32.3466 39.0438 32.7213L37.332 36.3365C38.6323 36.9522 40.1822 36.3393 40.7097 35.0008L36.9883 33.5341ZM39.7481 31.8674C38.5896 31.6875 37.4611 32.3347 37.0311 33.4255L40.7525 34.8922C40.4965 35.5418 39.8244 35.9272 39.1345 35.8201L39.7481 31.8674ZM38.0442 33.1108C38.1721 32.2974 38.9344 31.7411 39.7481 31.8674L39.1345 35.8201C40.5008 36.0322 41.7808 35.0981 41.9956 33.7322L38.0442 33.1108ZM40.2272 30.8326C39.1181 30.9903 38.2419 31.8536 38.0679 32.9602L42.0193 33.5816C41.9202 34.2116 41.4214 34.7031 40.79 34.7928L40.2272 30.8326ZM38.9827 32.3535C38.9389 31.6001 39.48 30.9388 40.2272 30.8326L40.79 34.7928C42.1025 34.6063 43.0529 33.4448 42.976 32.1213L38.9827 32.3535ZM40.489 29.6844C39.5132 30.1319 38.9117 31.1321 38.974 32.2038L42.9673 31.9717C43.0006 32.5454 42.6787 33.0808 42.1563 33.3204L40.489 29.6844ZM39.7278 31.3297C39.5419 30.6686 39.8648 29.9706 40.489 29.6844L42.1563 33.3204C43.3224 32.7857 43.9257 31.4817 43.5784 30.2468L39.7278 31.3297ZM40.542 28.469C39.7454 29.1423 39.4154 30.2189 39.6977 31.2229L43.5484 30.1401C43.6903 30.6446 43.5245 31.1855 43.1242 31.5238L40.542 28.469ZM40.2313 30.1315C39.927 29.5738 40.0568 28.8791 40.542 28.469L43.1242 31.5238C44.0897 30.7077 44.3481 29.325 43.7424 28.2152L40.2313 30.1315ZM40.3789 27.2313C39.78 28.0738 39.7143 29.1841 40.2094 30.0914L43.7206 28.1752C43.9584 28.6109 43.9268 29.1441 43.6392 29.5487L40.3789 27.2313ZM40.4883 28.8691C40.0702 28.4121 40.0279 27.7252 40.3867 27.2203L43.6471 29.5376C44.3802 28.5062 44.2938 27.1029 43.4397 26.1693L40.4883 28.8691ZM39.9811 26.0474C39.5919 27.0071 39.7893 28.105 40.4883 28.8691L43.4397 26.1693C43.7818 26.5433 43.8784 27.0808 43.6879 27.5506L39.9811 26.0474ZM40.5417 27.6362C39.9871 27.282 39.7641 26.5825 40.0114 25.9727L43.7182 27.4758C44.1955 26.2988 43.7652 24.9487 42.6947 24.2651L40.5417 27.6362ZM39.3611 24.9818C39.1872 26.0233 39.6519 27.0679 40.5417 27.6362L42.6947 24.2651C43.1558 24.5595 43.3965 25.1008 43.3065 25.6404L39.3611 24.9818ZM40.3844 26.4493C39.6943 26.2455 39.2647 25.5589 39.3832 24.8492L43.3286 25.5077C43.5429 24.2238 42.7657 22.9817 41.5173 22.6131L40.3844 26.4493ZM38.541 24.1042C38.5944 25.1983 39.3339 26.139 40.3844 26.4493L41.5173 22.6131C42.098 22.7846 42.5068 23.3045 42.5363 23.9093L38.541 24.1042ZM40.0157 25.3509C39.2256 25.356 38.5719 24.7375 38.5334 23.9483L42.5287 23.7535C42.4628 22.4018 41.3431 21.3423 39.9898 21.351L40.0157 25.3509ZM37.5617 23.4859C37.8615 24.5925 38.8692 25.3583 40.0157 25.3509L39.9898 21.351C40.6592 21.3467 41.2475 21.7938 41.4225 22.4399L37.5617 23.4859ZM39.4237 24.3967C38.6092 24.6484 37.7483 24.1745 37.5253 23.3516L41.3862 22.3056C41.017 20.943 39.5913 20.1581 38.2425 20.5751L39.4237 24.3967ZM36.4861 23.1864C37.0484 24.2421 38.281 24.7499 39.4237 24.3967L38.2425 20.5751C38.9326 20.3618 39.6769 20.6684 40.0165 21.3059L36.4861 23.1864ZM38.6124 23.6644C37.8675 24.1527 36.864 23.8959 36.4453 23.1097L39.9756 21.2292C39.2885 19.9392 37.642 19.5178 36.4196 20.3191L38.6124 23.6644ZM35.3979 23.2432C36.2178 24.1593 37.5842 24.3384 38.6124 23.6644L36.4196 20.3191C37.0463 19.9083 37.879 20.0174 38.3787 20.5758L35.3979 23.2432ZM38.3705 20.5667C37.377 19.4564 35.6388 19.4564 34.6453 20.5667L37.626 23.2341C37.0296 23.9006 35.9862 23.9006 35.3898 23.2341L38.3705 20.5667Z" fill="#8197B2" mask="url(#path-13-inside-2_14_41)"/>
</svg>
