<svg width="45" height="58" viewBox="0 0 45 58" fill="none" xmlns="http://www.w3.org/2000/svg">
<mask id="path-1-inside-1_14_43" fill="white">
<path fill-rule="evenodd" clip-rule="evenodd" d="M27.6494 0.228063C27.518 0.0828447 27.3312 0 27.1353 0C26.7523 0 26.4419 0.310475 26.4419 0.693466V13.2979C26.4419 13.8502 26.8896 14.2979 27.4419 14.2979L37.814 14.2979C38.3662 14.2979 38.814 13.8502 38.814 13.2979V12.9461C38.814 12.698 38.7218 12.4588 38.5553 12.275L27.6494 0.228063Z"/>
</mask>
<path d="M38.5553 12.275L40.038 10.9327L38.5553 12.275ZM27.6494 0.228063L29.1321 -1.11419L27.6494 0.228063ZM28.4419 13.2979V0.693466L24.4419 0.693466V13.2979H28.4419ZM37.814 12.2979L27.4419 12.2979V16.2979H37.814V12.2979ZM36.814 12.9461V13.2979H40.814V12.9461H36.814ZM40.038 10.9327L29.1321 -1.11419L26.1667 1.57032L37.0726 13.6172L40.038 10.9327ZM40.814 12.9461C40.814 12.2019 40.5374 11.4844 40.038 10.9327L37.0726 13.6172C36.9062 13.4333 36.814 13.1941 36.814 12.9461H40.814ZM37.814 16.2979C39.4708 16.2979 40.814 14.9547 40.814 13.2979H36.814C36.814 12.7456 37.2617 12.2979 37.814 12.2979V16.2979ZM24.4419 13.2979C24.4419 14.9547 25.785 16.2979 27.4419 16.2979V12.2979C27.9942 12.2979 28.4419 12.7456 28.4419 13.2979H24.4419ZM27.1353 2C26.7663 2 26.4144 1.84392 26.1667 1.57032L29.1321 -1.11419C28.6215 -1.67823 27.8962 -2 27.1353 -2V2ZM27.1353 -2C25.6478 -2 24.4419 -0.794098 24.4419 0.693466L28.4419 0.693466C28.4419 1.41505 27.8569 2 27.1353 2V-2Z" fill="#8197B2" mask="url(#path-1-inside-1_14_43)"/>
<rect x="20.2558" width="7.06977" height="2.04255" fill="#8197B2"/>
<path d="M20.1395 12.2553H17.7209C17.1686 12.2553 16.7209 12.703 16.7209 13.2553V15.3404C16.7209 15.8927 16.2732 16.3404 15.7209 16.3404H14.186C13.6338 16.3404 13.186 16.7881 13.186 17.3404V20.4468C13.186 20.9991 13.6338 21.4468 14.186 21.4468H15.7209C16.2732 21.4468 16.7209 21.8945 16.7209 22.4468V24.5319C16.7209 25.0842 17.1686 25.5319 17.7209 25.5319H20.1395C20.6918 25.5319 21.1395 25.0842 21.1395 24.5319V22.4468C21.1395 21.8945 21.5872 21.4468 22.1395 21.4468H23.6744C24.2267 21.4468 24.6744 20.9991 24.6744 20.4468V17.3404C24.6744 16.7881 24.2267 16.3404 23.6744 16.3404H22.1395C21.5872 16.3404 21.1395 15.8927 21.1395 15.3404V13.2553C21.1395 12.703 20.6918 12.2553 20.1395 12.2553Z" stroke="#8197B2" stroke-width="2"/>
<rect x="7" y="39.8298" width="20.3256" height="2.04255" rx="1" fill="#8197B2"/>
<rect x="7" y="33.7021" width="20.3256" height="2.04255" rx="1" fill="#8197B2"/>
<rect x="7" y="45.9574" width="13.2558" height="2.04255" rx="1" fill="#8197B2"/>
<path fill-rule="evenodd" clip-rule="evenodd" d="M26.4419 2V0H6.81396C3.50026 0 0.813965 2.68629 0.813965 5.99999V23.4894H2.81396V5.99999C2.81396 3.79086 4.60482 2 6.81396 2H26.4419ZM36.814 13.2766H38.814V15.3191V28.6462C38.5233 28.6128 38.2285 28.5957 37.9302 28.5957C37.5521 28.5957 37.1796 28.6232 36.814 28.6764V13.2766ZM36.814 48.9406V51.1915C36.814 53.4006 35.0231 55.1915 32.814 55.1915H6.81396C4.60483 55.1915 2.81396 53.4006 2.81396 51.1915V33.7021H0.813965V51.1915C0.813965 54.5052 3.50026 57.1915 6.81396 57.1915H32.814C36.1277 57.1915 38.814 54.5052 38.814 51.1915V48.9709C38.5233 49.0042 38.2285 49.0213 37.9302 49.0213C37.5521 49.0213 37.1796 48.9938 36.814 48.9406ZM2.81396 27.5745V29.617H0.813965V27.5745H2.81396Z" fill="#8197B2"/>
<path d="M44 38.8085C44 42.9092 41.1516 45.9787 37.9302 45.9787C34.7089 45.9787 31.8605 42.9092 31.8605 38.8085C31.8605 34.7078 34.7089 31.6383 37.9302 31.6383C41.1516 31.6383 44 34.7078 44 38.8085Z" stroke="#8197B2" stroke-width="2"/>
<path d="M35.7209 38.2979L37.1222 39.9173C37.5384 40.3982 38.2918 40.3736 38.6757 39.8666L41.0233 36.766" stroke="#8197B2" stroke-width="2"/>
<path d="M35.3136 37.8192C35.3136 37.8192 35.8019 38.3727 35.79 38.3617" stroke="#8197B2" stroke-width="2" stroke-linecap="round"/>
<path d="M41.0164 36.742V36.7907" stroke="#8197B2" stroke-width="2" stroke-linecap="round"/>
</svg>
